<svg xmlns="http://www.w3.org/2000/svg" viewBox="0 0 1024 1024"><defs><style>.cls-1{fill:#42b884;}.cls-2{fill:#354a5e;}</style></defs><g id="logo"><path class="cls-1" d="M512,778.77A29.88,29.88,0,0,1,490.79,770l-434-434a30,30,0,1,1,42.42-42.43L512,706.34,924.79,293.55A30,30,0,1,1,967.21,336l-434,434A29.88,29.88,0,0,1,512,778.77Z"/><path class="cls-2" d="M512,580.41a30,30,0,0,1-21.21-8.79L257.34,338.18a30,30,0,0,1,42.43-42.43L512,508,724.23,295.75a30,30,0,0,1,42.43,42.43L533.21,571.62A30,30,0,0,1,512,580.41Z"/><path class="cls-1" d="M512,382.05a29.91,29.91,0,0,1-21.21-8.78L257.34,139.82A30,30,0,1,1,299.77,97.4L512,309.63,724.23,97.4a30,30,0,0,1,42.43,42.42L533.21,373.27A29.91,29.91,0,0,1,512,382.05Z"/><path class="cls-2" d="M512,935.39c-53.91,0-105.23-6.65-144.49-18.73-20.85-6.42-37.71-14.21-50.11-23.17-22.84-16.5-27.64-34.8-27.64-47.25,0-15.83,7.59-38.59,43.76-57.13C354.21,778.5,383,770,416.73,764.43a30,30,0,1,1,9.71,59.21c-40.76,6.69-62.49,16.32-72,22.53,6.89,4.45,20.25,10.8,43.3,16.64,32,8.11,72.61,12.58,114.3,12.58s82.28-4.47,114.3-12.58c23.05-5.84,36.41-12.19,43.3-16.64-9.55-6.21-31.28-15.84-72-22.53a30,30,0,1,1,9.71-59.21C641,770,669.79,778.5,690.48,789.11c36.17,18.54,43.76,41.3,43.76,57.13,0,12.45-4.8,30.75-27.64,47.25-12.4,9-29.26,16.75-50.11,23.17C617.23,928.74,565.91,935.39,512,935.39ZM675.37,851h0Z"/></g></svg>